<svg width="20" height="20" viewBox="0 0 5.292 5.292" xmlns="http://www.w3.org/2000/svg"><path style="fill:#000;stroke-width:.510332" d="M12.135 73.418h5.292v5.292h-5.292z" transform="translate(-12.135 -73.418)"/><path style="fill:#fff;stroke-width:.0102339" d="M14.316 78.482c-.06-.022-.058.02-.058-.885v-.832l-.3-.004a3.625 3.625 0 0 1-.318-.011c-.042-.018-.045-.04-.049-.351-.004-.33 0-.392.03-.425.02-.021.023-.022.328-.025l.307-.003.005-.317c.004-.278.008-.328.027-.402.095-.356.336-.582.723-.676.102-.025.113-.025.504-.029.386-.003.4-.003.426.016l.026.019.004.324c.001.178 0 .333-.003.345-.014.05-.04.055-.35.06-.331.007-.351.011-.4.09-.027.042-.027.046-.03.301l-.004.26.356.003c.355.003.357.003.381.025l.025.022v.363c0 .336-.002.365-.02.381-.017.016-.05.018-.38.02l-.36.003v1.678l-.027.028-.026.027-.397.002a5.588 5.588 0 0 1-.42-.007z" transform="translate(-12.135 -73.418)"/></svg>