<svg width="20" height="20" viewBox="0 0 5.292 5.292" xmlns="http://www.w3.org/2000/svg"><path style="fill:#000;stroke-width:.510332" d="M12.135 73.418h5.292v5.292h-5.292z" transform="translate(-12.135 -73.418)"/><path style="fill:#fff;stroke-width:.0082948" d="M13.847 77.782c-.3-.024-.554-.08-.798-.182a3.57 3.57 0 0 1-.342-.172l-.043-.027.151.003c.223.005.401-.02.596-.084a1.582 1.582 0 0 0 .523-.28.198.198 0 0 0-.064-.01.881.881 0 0 1-.729-.57l-.005-.02h.144c.091 0 .161-.003.193-.01l.05-.012-.067-.019a.87.87 0 0 1-.624-.76l-.005-.081.032.014a.904.904 0 0 0 .319.086h.037l-.025-.018a.866.866 0 0 1-.328-.92c.017-.065.082-.215.092-.211a.88.88 0 0 1 .064.068 2.484 2.484 0 0 0 1.727.83 1.201 1.201 0 0 1 .01-.408.87.87 0 0 1 1.43-.43l.05.047.06-.013c.132-.03.313-.098.429-.16.033-.02.06-.03.06-.024a.856.856 0 0 1-.337.44.136.136 0 0 0-.035.025 1.784 1.784 0 0 0 .408-.1.442.442 0 0 1 .077-.026.514.514 0 0 1-.052.077c-.074.097-.204.23-.3.307l-.077.061.005.06c.006.07-.008.277-.026.403a2.575 2.575 0 0 1-.905 1.593c-.364.29-.767.454-1.255.511-.079.01-.37.017-.44.012z" transform="translate(-12.135 -73.418)"/></svg>