<svg width="16" height="21" viewBox="0 0 4.233 5.556" xmlns="http://www.w3.org/2000/svg"><path style="fill:#c110cc;fill-opacity:1;stroke-width:.0108064" d="M82.534 9.782a.852.852 0 0 1-.715-.739c-.015-.126-.015-3.938 0-4.064a.879.879 0 0 1 .31-.562 1.08 1.08 0 0 1 .329-.164c.07-.018.148-.02 1.015-.02.895 0 .943.001.999.02a.9.9 0 0 1 .263.163 26.979 26.979 0 0 1 1.124 1.137.87.87 0 0 1 .17.326c.016.083.015 3.042 0 3.164a.877.877 0 0 1-.194.447.787.787 0 0 1-.273.212c-.186.092-.064.085-1.6.087-.75.001-1.393-.002-1.428-.007zm2.805-.441a.455.455 0 0 0 .263-.289c.012-.047.014-.319.014-1.509 0-1.444 0-1.451-.022-1.489a.217.217 0 0 0-.147-.098 5.248 5.248 0 0 0-.508-.02c-.448-.007-.451-.007-.491-.032a.236.236 0 0 1-.066-.07l-.026-.046-.005-.468c-.006-.505-.009-.532-.066-.608a.145.145 0 0 0-.068-.05c-.028-.008-.285-.01-.846-.008-.795.003-.806.004-.862.027a.463.463 0 0 0-.258.27c-.017.05-.019.2-.022 2.016-.002 1.367 0 1.984.009 2.033a.43.43 0 0 0 .34.358c.028.005.649.009 1.378.008l1.327-.002zm-2.494-.835a.507.507 0 0 0-.04-.01c-.066-.015-.148-.121-.148-.193 0-.041.029-.119.056-.15a.251.251 0 0 1 .067-.045c.041-.02.097-.02 1.147-.02 1.065-.001 1.106 0 1.144.02.156.08.16.276.008.37l-.043.028-1.09.002c-.6 0-1.095 0-1.101-.002zm-.016-.86c-.094-.033-.153-.093-.168-.175-.016-.089.057-.207.143-.231.027-.008.332-.012.916-.011.847 0 .877 0 .922.021.078.036.12.102.12.19 0 .06-.015.1-.052.14-.066.071-.003.067-.98.069-.487 0-.893 0-.901-.004zm-.043-.87a.196.196 0 0 1-.11-.111.178.178 0 0 1-.007-.144.21.21 0 0 1 .1-.123l.043-.023h1.107c1.066 0 1.109 0 1.152.02a.242.242 0 0 1 .117.156c.016.088-.057.207-.143.23-.028.009-.396.012-1.131.012-.95 0-1.096-.003-1.128-.017z" transform="translate(-81.808 -4.233)"/></svg>