<svg width="545.95" height="545.571" viewBox="0 0 144.449 144.349" xmlns="http://www.w3.org/2000/svg"><path style="fill:#fff;stroke-width:.282222" d="M183.732 176.5c-.573-.171-11.327-10.739-33.937-33.348l-33.099-33.098-32.95 32.92c-18.121 18.106-33.226 33.06-33.565 33.231-.925.467-2.856.375-3.812-.183-.945-.551-1.922-2.22-1.922-3.286 0-.384.133-1.056.295-1.493.168-.45 14.581-15.086 33.303-33.815l33.007-33.02L78.296 71.67C60.28 53.665 45.358 38.59 45.135 38.171c-1.569-2.95 1.31-6.42 4.599-5.544.894.238 6.301 5.517 34.013 33.208l32.95 32.926 32.949-32.926c35.401-35.376 33.68-33.787 36.06-33.25 2.405.542 3.712 3.404 2.552 5.586-.223.42-15.145 15.493-33.16 33.498l-32.755 32.736 33.141 33.163c29.5 29.519 33.162 33.279 33.332 34.22.372 2.053-.561 3.814-2.413 4.555-1.263.505-1.463.517-2.67.157z" transform="translate(-44.447 -32.4)"/></svg>