<svg width="124" height="60" viewBox="0 0 32.808 15.875" xmlns="http://www.w3.org/2000/svg"><path style="fill:#000;stroke-width:.0339008" d="M-12 38.698a9.542 9.542 0 0 1-1.75-.348c-1.93-.609-3.507-2.012-4.456-3.963-.274-.565-.342-.774-.11-.34a7.114 7.114 0 0 0 1.24 1.71c1.224 1.269 2.75 2.05 4.569 2.337.556.088 1.796.09 2.333.004 1.816-.292 3.296-1.03 4.5-2.247.608-.614.997-1.14 1.353-1.833.091-.178.171-.319.177-.312.02.02-.39.86-.577 1.178-.103.175-.3.471-.44.658-.679.912-1.228 1.412-2.358 2.146-.207.135-.951.474-1.319.602-.808.28-1.474.395-2.384.411-.354.006-.704.005-.778-.003zm1.772-1.953c-.119-.128-.12-.158-.016-.464.054-.161.076-.284.064-.371-.014-.11 0-.152.09-.266.152-.19.256-.431.324-.748.033-.15.082-.288.11-.308.033-.025.059-.148.08-.391.018-.199.054-.387.08-.43.044-.066.043-.093-.005-.22-.058-.154-.126-.227-.515-.553-.133-.111-.242-.214-.242-.229 0-.015.964-.027 2.143-.027h2.143l.02.145c.016.114.006.162-.047.23a1.35 1.35 0 0 0-.136.237c-.2.451-.315.6-.438.568-.112-.03-.381.066-.48.17a1.292 1.292 0 0 0-.166.248c-.042.084-.215.291-.383.46-.23.233-.36.335-.53.414-.199.094-.222.115-.208.188.02.108-.055.18-.217.207a1.699 1.699 0 0 0-.363.14c-.13.066-.276.12-.325.12-.072 0-.102.027-.152.138-.065.145-.204.284-.323.322-.052.016-.061.032-.034.06.069.07.037.121-.132.214-.173.094-.2.139-.129.21.032.032.024.041-.037.041-.043 0-.121-.046-.176-.105zm-8.33-3.147c-.02-.048-.015-.052.018-.02.023.024.034.051.023.062-.01.01-.03-.009-.042-.042zm14.066-1.537a4.245 4.245 0 0 1-.444-.113l-.275-.085-.106.106-.105.105v-1.029l.3.15c.345.174.919.314 1.123.275.268-.052.352-.283.146-.404a1.892 1.892 0 0 0-.36-.127c-.637-.163-1.05-.427-1.155-.739-.169-.496.034-.892.542-1.06.308-.102.92-.1 1.332.002l.294.073.124-.094.123-.095v.481c0 .468-.002.48-.067.446-.218-.118-.887-.273-1.174-.273-.29 0-.412.087-.35.25.026.071.303.226.403.226.075 0 .64.199.799.281.474.245.645.667.444 1.095-.101.214-.223.33-.47.443-.166.076-.252.091-.575.102-.209.006-.456 0-.549-.016zm-22.47-.054c-.268-.075-.51-.22-.602-.36-.155-.236-.178-.418-.179-1.391v-.903l-.086-.117-.086-.117.581-.009a5.8 5.8 0 0 1 .597.007c.009.009-.016.057-.055.107-.07.088-.072.127-.072.992 0 .852.004.906.07 1.015.056.09.111.126.26.169.337.099.67.005.784-.22.065-.128.07-.197.07-.975 0-.757-.006-.846-.062-.927a2.723 2.723 0 0 1-.087-.133c-.019-.033.105-.043.574-.043h.597l-.085.113-.085.112-.014.967c-.013.851-.022.986-.08 1.136a.994.994 0 0 1-.544.527c-.174.07-.263.08-.755.09-.42.008-.604-.002-.74-.04zm3.392-.099.088-.117v-2.455l-.088-.117-.089-.117h.88l.418.465c.23.256.562.631.74.834l.32.37.01-.72.009-.72-.087-.114-.087-.115h.492c.27 0 .492.01.492.02s-.038.069-.085.13l-.084.112v2.66h-.631l-.68-.755a37.627 37.627 0 0 0-.783-.856l-.104-.1v.734c0 .734 0 .735.084.836.047.055.085.11.085.121 0 .012-.223.02-.495.02h-.494zm4.282.088c0-.016.03-.056.067-.09.066-.06.068-.105.068-1.326 0-1.236-.002-1.267-.071-1.356-.04-.05-.065-.098-.056-.107a5.79 5.79 0 0 1 .597-.007l.581.01-.086.116-.086.117v2.456l.085.08c.046.044.084.092.084.108 0 .015-.266.028-.591.028-.326 0-.592-.013-.592-.029zm3.25-.048c-.026-.067-.27-.6-.595-1.3-.557-1.195-.694-1.497-.694-1.533 0-.007.268-.013.595-.013h.595l-.088.105c-.048.057-.087.123-.087.146 0 .039.373.896.59 1.357.084.178.098.192.135.136.023-.034.182-.379.354-.766.312-.706.332-.784.222-.877-.027-.022-.05-.054-.05-.07 0-.017.229-.03.508-.03.481 0 .545.01.478.086a15.12 15.12 0 0 0-.36.746c-.183.392-.466.99-.628 1.33-.162.338-.305.648-.318.687-.02.067-.046.073-.325.073-.283 0-.305-.005-.332-.077zm2.736.056c0-.011.038-.066.084-.121l.085-.101V29.384l-.085-.125a.903.903 0 0 1-.084-.141c0-.009.601-.016 1.336-.016h1.336v.795l-.095-.092-.095-.09h-1.501v.577h.48c.475 0 .48-.001.575-.092l.095-.09v.908l-.095-.091c-.094-.09-.1-.092-.575-.092h-.48v.578h1.501l.095-.091.095-.091v.794h-1.336c-.735 0-1.336-.01-1.336-.02zm3.87-.093.087-.113V29.33l-.088-.116-.088-.116 1.094.011c1.04.011 1.104.015 1.282.087.358.145.538.408.538.79.001.375-.166.641-.513.82-.121.061-.13.074-.089.133l.392.575.347.51H-7.759l.088-.116.089-.116-.276-.41-.276-.41H-8.5v.412c0 .39.005.42.087.527l.086.114H-9.518zm1.8-1.571c.15-.111.197-.235.15-.392-.059-.197-.159-.234-.627-.234h-.39v.72l.386-.012c.328-.01.401-.022.482-.082zm5.558 1.654c0-.017.29-.62.645-1.34l.645-1.308-.053-.103a.65.65 0 0 1-.053-.122c0-.01.218-.019.484-.019h.484l.182.383c.1.21.386.803.635 1.316.25.514.483 1 .517 1.08l.063.144H.247l.11-.115.111-.115-.07-.14-.072-.14h-1.384l-.071.14-.071.141.07.096c.039.053.07.104.07.114 0 .01-.227.019-.506.019-.28 0-.508-.014-.508-.03zm2.148-1.09a10.408 10.408 0 0 0-.232-.513l-.211-.446-.228.488a7.42 7.42 0 0 0-.226.513c0 .014.207.025.46.025.441 0 .457-.002.437-.067zm2.296 1.004.088-.117v-2.455l-.088-.117-.089-.117h.579c.318 0 .579.012.578.026 0 .014-.03.064-.067.11-.062.08-.066.145-.067 1.13v1.045h1.4l.094-.091.095-.091v.794H2.281Zm-16.008-3.51a1.48 1.48 0 0 1-.197-.133c-.082-.063-.179-.114-.216-.114-.052 0-.062-.016-.046-.068.012-.039.006-.068-.014-.068-.048 0-.047-.112 0-.16.027-.026.01-.078-.057-.184-.146-.232-.378-.75-.401-.898-.047-.29-.05-.297-.108-.249-.064.053-.046.227.058.572.069.227.079.494.019.494-.04 0-.07-.065-.137-.296-.03-.107-.086-.216-.123-.242-.058-.04-.064-.072-.045-.232a1.492 1.492 0 0 0-.11-.685c-.044-.084-.043-.116.008-.272.085-.263.19-.454.4-.73.133-.176.189-.28.189-.352 0-.126.255-.63.342-.676a.365.365 0 0 0 .114-.134.743.743 0 0 1 .126-.17l.074-.069-.15.049a7.924 7.924 0 0 0-2.565 1.424c-.646.541-1.135 1.11-1.67 1.943a7.827 7.827 0 0 0-.26.476c-.199.387-.2.372-.006-.092.128-.304.407-.865.536-1.076.826-1.346 1.771-2.243 3.015-2.86.666-.33 1.382-.55 2.237-.684.691-.109 1.843-.11 2.485-.002.994.167 1.81.448 2.57.886 1.087.625 1.936 1.432 2.671 2.537.222.334.786 1.431.753 1.465-.01.009-.052-.057-.095-.147-.317-.666-.876-1.431-1.473-2.016-1.07-1.048-2.213-1.677-3.75-2.062-.32-.08-.439-.094-.862-.093-.425 0-.522.011-.727.08-.277.094-.64.298-.761.428-.08.086-.081.093-.024.135.034.025.13.055.213.068.315.047.484.117.538.222.054.104.144.17.235.17.037 0 .053-.033.053-.11 0-.146.073-.282.147-.276.045.004.05-.005.02-.041a.261.261 0 0 0-.105-.067c-.05-.017-.064-.047-.056-.13.01-.104.014-.107.163-.095.083.006.198.04.253.075.26.164.315.183.406.134.08-.042.101-.035.317.114.127.087.311.202.408.256.163.09.172.1.12.152-.065.066-.258.073-.477.017-.128-.032-.162-.03-.205.013-.077.078-.025.187.127.265.073.037.133.081.133.097 0 .054-.242.147-.342.132-.084-.013-.098-.004-.098.066 0 .08-.135.247-.2.247-.02 0-.097.127-.174.28-.17.345-.195.373-.48.558-.215.14-.228.154-.227.275 0 .07.03.195.068.277.083.184.113.378.07.445-.056.083-.194-.081-.275-.325-.092-.276-.13-.309-.305-.256a.906.906 0 0 1-.332.019c-.143-.017-.223-.01-.295.028a.535.535 0 0 1-.29.033c-.357-.03-.569.098-.723.44-.144.32-.137.524.03.817l.13.23h.183c.287 0 .402-.065.511-.289.078-.16.104-.187.161-.168.038.012.118.03.178.04.128.02.127.015.054.155-.03.06-.074.178-.095.262l-.04.153-.775.006c-.427.003-.797-.003-.824-.013zm4.53-.097c0-.06.072-.05.093.013.008.023-.01.04-.04.04a.054.054 0 0 1-.053-.053zm-.756-.031c-.04-.03-.057-.078-.05-.142.01-.083.025-.095.112-.091.137.007.433.139.406.182-.011.018-.082.034-.156.034a.532.532 0 0 0-.193.03c-.038.021-.078.016-.119-.013zm-.47-.246a.37.37 0 0 1-.21-.096c-.046-.046-.106-.083-.134-.083a.5.5 0 0 1-.175-.085.498.498 0 0 0-.226-.085c-.085 0-.094-.008-.059-.05.065-.079.301-.028.408.086.062.067.11.089.17.078.053-.01.122.014.198.071a.427.427 0 0 0 .237.088c.113.001.116.004.055.051-.036.027-.082.047-.102.044a5.215 5.215 0 0 0-.163-.019z" transform="translate(27.915 -22.83)"/></svg>