<svg width="10" height="10" viewBox="0 0 2.646 2.646" xmlns="http://www.w3.org/2000/svg"><path style="fill:#fff;stroke-width:.00517765" d="M-162.296 86.072a.17.17 0 0 0 .112-.093.13.13 0 0 0 .013-.07c0-.071.008-.06-.29-.36a14.992 14.992 0 0 1-.266-.27c0-.002.013-.024.03-.05.13-.192.194-.406.194-.643 0-.185-.034-.337-.113-.5a1.152 1.152 0 0 0-1.21-.647 1.185 1.185 0 0 0-.555.24 1.62 1.62 0 0 0-.186.186c-.126.16-.21.351-.24.556-.013.082-.013.249 0 .33.03.205.114.397.24.557.037.047.138.148.186.186.16.126.35.208.556.24.082.012.25.012.329 0 .188-.03.368-.102.501-.2l.025-.018.156.155c.326.323.383.378.41.39.028.013.079.018.108.01zm-1.52-.673a.865.865 0 0 1-.325-.139.831.831 0 0 1-.104-1.26.826.826 0 1 1 1.046 1.272.866.866 0 0 1-.365.137c-.06.008-.189.003-.253-.01z" transform="translate(164.817 -83.43)"/></svg>