<svg width="29" height="26" viewBox="0 0 7.673 6.879" xmlns="http://www.w3.org/2000/svg"><path style="fill:#40548a;fill-opacity:1;stroke-width:.0230563" d="M3.672 6.622a.408.408 0 0 1-.481.244c-.102-.025-.188-.11-1.584-1.56C.795 4.463.102 3.726.066 3.67a.432.432 0 0 1-.022-.42c.025-.05.707-.778 1.542-1.645C2.79.351 3.1.042 3.17.018a.408.408 0 0 1 .486.218l.048.103v3.106c-.001 2.55-.007 3.119-.032 3.177zM4 6.622c.085.195.282.295.482.244.102-.025.188-.11 1.584-1.56.812-.843 1.505-1.58 1.541-1.637a.432.432 0 0 0 .022-.42c-.025-.05-.707-.778-1.542-1.645C4.882.351 4.573.042 4.503.018a.408.408 0 0 0-.486.218L3.969.34v3.106c.001 2.55.007 3.119.032 3.177z"/></svg>